<svg width="0" height="0" class="hidden">
  <symbol  xmlns="http://www.w3.org/2000/svg" viewBox="0 0 16 17" id="arrow-left">
    <g filter="url(#filter0_d_0_274)">
      <path d="M9.10547 12L15.1054 6.00002L9.10547 0L7.84045 1.26501L11.6809 5.10547L4 5.10547V6.8946L11.6809 6.8946L7.84045 10.735L9.10547 12Z"></path>
    </g>
    <defs>
      <filter id="filter0_d_0_274" x="0" y="0" width="19.1054" height="20" filterUnits="userSpaceOnUse" color-interpolation-filters="sRGB">
        <feFlood flood-opacity="0" result="BackgroundImageFix"></feFlood>
        <feColorMatrix in="SourceAlpha" type="matrix" values="0 0 0 0 0 0 0 0 0 0 0 0 0 0 0 0 0 0 127 0" result="hardAlpha"></feColorMatrix>
        <feOffset dy="4"></feOffset>
        <feGaussianBlur stdDeviation="2"></feGaussianBlur>
        <feComposite in2="hardAlpha" operator="out"></feComposite>
        <feColorMatrix type="matrix" values="0 0 0 0 0 0 0 0 0 0 0 0 0 0 0 0 0 0 0.25 0"></feColorMatrix>
        <feBlend mode="normal" in2="BackgroundImageFix" result="effect1_dropShadow_0_274"></feBlend>
        <feBlend mode="normal" in="SourceGraphic" in2="effect1_dropShadow_0_274" result="shape"></feBlend>
      </filter>
    </defs>
  </symbol>
  <symbol xmlns="http://www.w3.org/2000/svg" viewBox="0 0 21 24" id="copy">
    <path fill-rule="evenodd" clip-rule="evenodd" d="M17.909 0.659016L20.341 3.09098C20.763 3.51294 21 4.08523 21 4.68197V17.25C21 18.4926 19.9926 19.5 18.75 19.5H15V21.75C15 22.9926 13.9926 24 12.75 24H2.25C1.00734 24 0 22.9926 0 21.75V6.75C0 5.50734 1.00734 4.5 2.25 4.5H6V2.25C6 1.00734 7.00734 0 8.25 0H16.3181C16.9147 3.12036e-06 17.4871 0.237058 17.909 0.659016ZM2.53126 21.75H12.4687C12.5434 21.75 12.6149 21.7204 12.6677 21.6677C12.7204 21.6149 12.75 21.5434 12.75 21.4687V19.5H8.25C7.00734 19.5 6 18.4926 6 17.25V6.75H2.53126C2.45665 6.75 2.38512 6.77963 2.33238 6.83238C2.27963 6.88512 2.25 6.95665 2.25 7.03126V21.4687C2.25 21.5434 2.27963 21.6149 2.33238 21.6677C2.38512 21.7204 2.45665 21.75 2.53126 21.75ZM18.4687 17.25H8.53126C8.45665 17.25 8.38512 17.2204 8.33238 17.1677C8.27963 17.1149 8.25 17.0434 8.25 16.9687V2.53126C8.25 2.45665 8.27963 2.38512 8.33238 2.33238C8.38512 2.27963 8.45665 2.25 8.53126 2.25H13.5V6.375C13.5 6.99632 14.0036 7.5 14.625 7.5H18.75V16.9687C18.75 17.0434 18.7204 17.1149 18.6677 17.1677C18.6149 17.2204 18.5434 17.25 18.4687 17.25ZM15.75 5.25H18.75V4.7985C18.75 4.76156 18.7427 4.72499 18.7286 4.69086C18.7145 4.65673 18.6937 4.62572 18.6677 4.59961L16.4004 2.33236C16.3476 2.27963 16.2761 2.25 16.2014 2.25H15.75V5.25Z"></path>
  </symbol>
</svg>